<?xml version="1.0" encoding="UTF-8" standalone="no"?>
<!DOCTYPE svg PUBLIC "-//W3C//DTD SVG 1.1//EN" "http://www.w3.org/Graphics/SVG/1.1/DTD/svg11.dtd">
<svg version="1.1" xmlns="http://www.w3.org/2000/svg" xmlns:xlink="http://www.w3.org/1999/xlink" preserveAspectRatio="xMidYMid meet" viewBox="0 0 640 640" width="640" height="640"><defs><path d="M42.57 177.71C37.87 203.49 26.91 239.15 19.09 257.25C10.74 275.35 5 290.71 6.05 291.81C7.09 292.9 12.83 291.26 18.57 287.42C29 281.93 29.52 282.48 30.04 321.43C30.04 377.38 35.78 406.46 43.61 396.58C51.96 386.16 64.48 336.24 71.26 287.42C80.13 221.04 80.2 221.86 102.04 255.13C123.89 288.4 154.56 297.9 175.43 297.9C180.86 297.9 194.18 288.28 197.68 292.9C199.56 295.39 200.05 305.33 201.69 309.36C211.08 332.4 234.56 343.92 272.13 344.47C322.21 344.47 353 322.53 353 286.87C353 269.87 328.47 250.12 299.26 243.53C264.3 235.85 259.49 235.13 261.39 225.98C263.29 216.83 286.47 219.08 290.36 230.37C300.24 230.99 307.08 230.37 321.69 230.37C333.19 230.37 341.18 230.06 345.65 229.43C344.55 217.54 341.09 208.53 335.26 202.39C295.61 160.7 201.69 180.45 201.69 230.37C201.69 253.96 223.11 280.7 260.65 281.38C298.18 282.06 302.39 309.36 274.74 309.36C266.39 309.36 256.3 305.02 253.08 292.9C253.53 293.46 246.52 292.57 229.87 292.9C217.63 293.01 206.9 293.01 197.68 292.9C183.21 273.91 169.13 258.93 155.43 247.99C132.48 229.89 137.56 228.91 113.52 221.04C97.49 215.8 89.67 213.97 90.04 215.56C111.96 191.86 124.13 178.69 126.56 176.06C188.65 109.14 238.21 47.7 238.21 38.37C238.21 33.44 232.48 26.85 225.69 23.56C202.22 12.04 172.48 35.08 113.52 109.14C112.37 110.6 106.63 117.91 96.3 131.08C98.5 117.91 99.71 110.6 99.96 109.14C113 32.89 113.52 7.65 102.04 7.65C99.43 7.65 94.22 14.24 90.04 22.47C75.96 52.09 51.44 131.63 42.57 177.71Z" id="ccxl59g1M"></path></defs><g><g><g><use xlink:href="#ccxl59g1M" opacity="1" fill="#000000" fill-opacity="1"></use><g><use xlink:href="#ccxl59g1M" opacity="1" fill-opacity="0" stroke="#000000" stroke-width="1" stroke-opacity="0"></use></g></g></g></g></svg>