<?xml version="1.0" encoding="UTF-8" standalone="no"?>
<!DOCTYPE svg PUBLIC "-//W3C//DTD SVG 1.1//EN" "http://www.w3.org/Graphics/SVG/1.1/DTD/svg11.dtd">
<svg version="1.1" xmlns="http://www.w3.org/2000/svg" xmlns:xlink="http://www.w3.org/1999/xlink" preserveAspectRatio="xMidYMid meet" viewBox="98.14167994228308 47.2434488589268 451.9666401154341 538.584530853575" width="447.97" height="534.58"><defs><path d="M116.13 389.65C105.35 414.4 97.95 435.41 99.3 436.92C100.64 438.41 108.05 436.17 115.46 430.91C128.92 423.4 129.59 424.16 130.27 477.43C130.27 553.96 137.67 593.74 147.78 580.22C158.56 565.97 174.72 497.69 183.47 430.91C194.92 340.12 195.01 341.24 223.2 386.75C251.4 432.25 290.98 445.25 317.92 445.25C324.93 445.25 342.12 432.09 346.64 438.41C349.06 441.82 349.7 455.41 351.81 460.92C363.93 492.44 394.24 508.19 442.73 508.95C507.37 508.95 547.11 478.94 547.11 430.16C547.11 406.91 515.45 379.89 477.75 370.88C432.62 360.38 426.42 359.39 428.87 346.88C431.32 334.36 461.24 337.44 466.26 352.88C479.01 353.73 487.84 352.88 506.7 352.88C521.54 352.88 531.85 352.46 537.62 351.59C536.2 335.33 531.74 323.01 524.21 314.61C473.04 257.59 351.81 284.6 351.81 352.88C351.81 385.15 379.46 421.72 427.91 422.65C476.35 423.58 481.79 460.92 446.1 460.92C435.32 460.92 422.3 454.99 418.14 438.41C418.72 439.18 409.68 437.96 388.18 438.41C372.39 438.56 358.54 438.56 346.64 438.41C327.96 412.43 309.79 391.94 292.11 376.98C262.48 352.22 269.04 350.88 238.01 340.12C217.32 332.95 207.23 330.45 207.71 332.62C236 300.21 251.71 282.19 254.84 278.6C334.98 187.06 398.95 103.02 398.95 90.26C398.95 83.52 391.55 74.51 382.79 70.01C352.5 54.25 314.11 85.76 238.01 187.06C236.53 189.06 229.12 199.06 215.79 217.07C218.63 199.06 220.19 189.06 220.51 187.06C237.34 82.77 238.01 48.24 223.2 48.24C219.83 48.24 213.1 57.26 207.71 68.51C189.53 109.03 157.89 217.82 146.44 280.85C140.37 316.11 126.23 364.89 116.13 389.65Z" id="amrSER4zA"></path></defs><g><g><use xlink:href="#amrSER4zA" opacity="1" fill="#004197" fill-opacity="1"></use><g><use xlink:href="#amrSER4zA" opacity="1" fill-opacity="0" stroke="#000000" stroke-width="1" stroke-opacity="0"></use></g></g></g></svg>