<?xml version="1.0" standalone="no"?>
<!DOCTYPE svg PUBLIC "-//W3C//DTD SVG 20010904//EN"
 "http://www.w3.org/TR/2001/REC-SVG-20010904/DTD/svg10.dtd">
<svg version="1.0" xmlns="http://www.w3.org/2000/svg"
 width="80.000000pt" height="87.000000pt" viewBox="0 0 80.000000 87.000000"
 preserveAspectRatio="xMidYMid meet">

<g transform="translate(0.000000,87.000000) scale(0.100000,-0.100000)"
fill="#000000" stroke="none">
<path d="M216 793 c-27 -54 -74 -199 -91 -283 -9 -47 -30 -112 -45 -145 -16
-33 -27 -61 -25 -63 2 -2 13 1 24 8 20 10 21 9 22 -62 0 -102 11 -155 26 -137
16 19 40 110 53 199 17 121 15 119 69 67 47 -46 106 -77 146 -77 16 0 26 -9
35 -30 18 -42 63 -63 135 -64 96 0 155 40 155 105 0 31 -47 67 -103 79 -67 14
-89 26 -63 36 10 4 27 2 37 -4 10 -7 41 -12 69 -12 58 0 65 16 26 55 -76 76
-256 40 -256 -51 0 -43 40 -76 113 -93 63 -14 80 -41 27 -41 -16 0 -30 5 -30
10 0 6 -25 10 -56 10 -53 0 -60 3 -135 60 -44 33 -91 65 -106 71 l-27 10 70
72 c119 122 214 234 214 251 0 9 -11 21 -24 27 -45 21 -102 -21 -215 -156
l-33 -40 7 40 c25 139 26 185 4 185 -5 0 -15 -12 -23 -27z"/>
</g>
</svg>
