<?xml version="1.0" encoding="UTF-8" standalone="no"?>
<!DOCTYPE svg PUBLIC "-//W3C//DTD SVG 1.1//EN" "http://www.w3.org/Graphics/SVG/1.1/DTD/svg11.dtd">
<svg version="1.1" xmlns="http://www.w3.org/2000/svg" xmlns:xlink="http://www.w3.org/1999/xlink" preserveAspectRatio="xMidYMid meet" viewBox="4.926217027422943 6.649999999999977 635.0023544011483 634.1202451392892" width="631" height="630.12"><defs><path d="M29.86 410.07C14.68 439.25 4.24 464.01 6.15 465.78C8.04 467.54 18.48 464.9 28.91 458.71C47.88 449.86 48.82 450.74 49.77 513.54C49.77 603.74 60.2 650.63 74.44 634.7C89.62 617.9 112.38 537.42 124.71 458.71C140.83 351.69 140.96 353.01 180.67 406.65C220.39 460.29 276.15 475.6 314.09 475.6C323.97 475.6 348.18 460.09 354.55 467.54C357.96 471.56 358.86 487.58 361.84 494.08C378.91 531.23 421.6 549.8 489.9 550.69C580.95 550.69 636.93 515.31 636.93 457.82C636.93 430.41 592.33 398.57 539.23 387.95C475.67 375.56 466.92 374.4 470.38 359.65C473.83 344.9 515.97 348.53 523.05 366.73C541.01 367.73 553.44 366.73 580 366.73C600.91 366.73 615.44 366.23 623.57 365.21C621.57 346.04 615.28 331.52 604.68 321.62C532.59 254.4 361.84 286.25 361.84 366.73C361.84 404.76 400.78 447.87 469.03 448.97C537.26 450.07 544.92 494.08 494.65 494.08C479.47 494.08 461.12 487.08 455.27 467.54C456.09 468.45 443.34 467.01 413.07 467.54C390.82 467.72 371.31 467.72 354.55 467.54C328.24 436.93 302.64 412.77 277.73 395.14C236.01 365.95 245.24 364.37 201.54 351.69C172.4 343.24 158.18 340.29 158.85 342.85C198.7 304.64 220.83 283.41 225.25 279.17C338.13 171.28 428.23 72.22 428.23 57.18C428.23 49.23 417.82 38.61 405.47 33.3C362.8 14.73 308.73 51.87 201.54 171.28C199.45 173.63 189.01 185.42 170.23 206.65C174.23 185.42 176.43 173.63 176.89 171.28C200.59 48.34 201.54 7.65 180.67 7.65C175.92 7.65 166.45 18.27 158.85 31.54C133.25 79.3 88.67 207.54 72.55 281.83C64 323.39 44.08 380.88 29.86 410.07Z" id="a144P7pzOi"></path></defs><g><g><use xlink:href="#a144P7pzOi" opacity="1" fill="#004197" fill-opacity="1"></use><g><use xlink:href="#a144P7pzOi" opacity="1" fill-opacity="0" stroke="#000000" stroke-width="1" stroke-opacity="0"></use></g></g></g></svg>